<svg width="214" height="73" viewBox="0 0 214 73" fill="none" xmlns="http://www.w3.org/2000/svg">
<path d="M16.128 39.088C17.1093 37.3813 18.496 36.0587 20.288 35.12C22.08 34.1387 24.192 33.648 26.624 33.648C29.4827 33.648 32.064 34.3947 34.368 35.888C36.7147 37.3813 38.5493 39.5147 39.872 42.288C41.2373 45.0613 41.92 48.304 41.92 52.016C41.92 55.728 41.2373 58.992 39.872 61.808C38.5493 64.5813 36.7147 66.7147 34.368 68.208C32.064 69.7013 29.4827 70.448 26.624 70.448C24.192 70.448 22.08 69.9787 20.288 69.04C18.496 68.0587 17.1093 66.7147 16.128 65.008V70H3.584V22.64H16.128V39.088ZM29.184 52.016C29.184 49.6693 28.544 47.856 27.264 46.576C26.0267 45.2533 24.4907 44.592 22.656 44.592C20.8213 44.592 19.264 45.2533 17.984 46.576C16.7467 47.8987 16.128 49.712 16.128 52.016C16.128 54.3627 16.7467 56.1973 17.984 57.52C19.264 58.8427 20.8213 59.504 22.656 59.504C24.4907 59.504 26.0267 58.8427 27.264 57.52C28.544 56.1547 29.184 54.32 29.184 52.016ZM63.788 70.448C60.204 70.448 56.9827 69.7013 54.124 68.208C51.308 66.7147 49.0893 64.5813 47.468 61.808C45.8467 59.0347 45.036 55.7707 45.036 52.016C45.036 48.304 45.8467 45.0613 47.468 42.288C49.132 39.5147 51.372 37.3813 54.188 35.888C57.0467 34.3947 60.268 33.648 63.852 33.648C67.436 33.648 70.636 34.3947 73.452 35.888C76.3107 37.3813 78.5507 39.5147 80.172 42.288C81.836 45.0613 82.668 48.304 82.668 52.016C82.668 55.728 81.836 58.992 80.172 61.808C78.5507 64.5813 76.3107 66.7147 73.452 68.208C70.5933 69.7013 67.372 70.448 63.788 70.448ZM63.788 59.568C65.5373 59.568 66.988 58.928 68.14 57.648C69.3347 56.3253 69.932 54.448 69.932 52.016C69.932 49.584 69.3347 47.728 68.14 46.448C66.988 45.168 65.5587 44.528 63.852 44.528C62.1453 44.528 60.716 45.168 59.564 46.448C58.412 47.728 57.836 49.584 57.836 52.016C57.836 54.4907 58.3907 56.368 59.5 57.648C60.6093 58.928 62.0387 59.568 63.788 59.568ZM111.26 33.776C115.398 33.776 118.684 35.1627 121.116 37.936C123.548 40.6667 124.764 44.3787 124.764 49.072V70H112.22V50.736C112.22 48.688 111.686 47.088 110.62 45.936C109.553 44.7413 108.124 44.144 106.332 44.144C104.454 44.144 102.982 44.7413 101.916 45.936C100.849 47.088 100.316 48.688 100.316 50.736V70H87.7715V34.096H100.316V39.216C101.425 37.5947 102.918 36.2933 104.796 35.312C106.673 34.288 108.828 33.776 111.26 33.776ZM129.599 52.016C129.599 48.304 130.26 45.0613 131.583 42.288C132.948 39.5147 134.804 37.3813 137.151 35.888C139.497 34.3947 142.1 33.648 144.958 33.648C147.263 33.648 149.311 34.1387 151.103 35.12C152.937 36.0587 154.367 37.36 155.391 39.024V22.64H167.999V70H155.391V65.008C154.409 66.672 153.023 67.9947 151.231 68.976C149.439 69.9573 147.327 70.448 144.895 70.448C142.036 70.448 139.433 69.7013 137.087 68.208C134.783 66.7147 132.948 64.5813 131.583 61.808C130.26 58.992 129.599 55.728 129.599 52.016ZM155.455 52.016C155.455 49.712 154.815 47.8987 153.535 46.576C152.297 45.2533 150.761 44.592 148.927 44.592C147.049 44.592 145.492 45.2533 144.255 46.576C143.017 47.856 142.399 49.6693 142.399 52.016C142.399 54.32 143.017 56.1547 144.255 57.52C145.492 58.8427 147.049 59.504 148.927 59.504C150.761 59.504 152.297 58.8427 153.535 57.52C154.815 56.1973 155.455 54.3627 155.455 52.016ZM181.483 30.768C179.264 30.768 177.472 30.1707 176.107 28.976C174.784 27.7387 174.123 26.2027 174.123 24.368C174.123 22.4907 174.784 20.9333 176.107 19.696C177.472 18.4587 179.264 17.84 181.483 17.84C183.659 17.84 185.408 18.4587 186.731 19.696C188.096 20.9333 188.779 22.4907 188.779 24.368C188.779 26.2027 188.096 27.7387 186.731 28.976C185.408 30.1707 183.659 30.768 181.483 30.768ZM187.691 34.096V70H175.147V34.096H187.691ZM201.17 30.768C198.951 30.768 197.159 30.1707 195.794 28.976C194.471 27.7387 193.81 26.2027 193.81 24.368C193.81 22.4907 194.471 20.9333 195.794 19.696C197.159 18.4587 198.951 17.84 201.17 17.84C203.346 17.84 205.095 18.4587 206.418 19.696C207.783 20.9333 208.466 22.4907 208.466 24.368C208.466 26.2027 207.783 27.7387 206.418 28.976C205.095 30.1707 203.346 30.768 201.17 30.768ZM207.378 34.096V70H194.834V34.096H207.378Z" fill="url(#paint0_linear_348_5)"/>
<path fill-rule="evenodd" clip-rule="evenodd" d="M172.744 17.636C183.615 16.0345 185.553 18.0428 191.546 18.1645C197.539 18.0428 199.477 15.7141 210.348 17.636C211.028 17.7577 211.095 17.7866 211.21 18.4592C211.258 18.7571 211.29 20.0159 211.3 20.3138C211.322 20.8648 211.213 20.9384 210.666 21.2299C210.188 21.483 209.967 21.5566 209.967 22.5624C209.967 29.1929 206.956 31.2429 202.911 31.3998C198.635 31.5664 195.156 29.1352 193.708 25.4036C191.658 20.1313 191.338 20.128 189.288 25.4036C187.843 29.1352 184.454 31.5696 180.181 31.403C176.136 31.2429 173.125 28.9559 173.125 22.5656C173.125 21.5598 172.904 21.4862 172.427 21.2331C171.879 20.9384 171.767 20.8648 171.792 20.3138C171.805 20.0159 171.837 18.7571 171.882 18.4592C171.997 17.7866 172.065 18.0748 172.744 17.636Z" fill="url(#paint1_linear_348_5)" stroke="url(#paint2_linear_348_5)" stroke-width="0.375" stroke-miterlimit="10"/>
<path fill-rule="evenodd" clip-rule="evenodd" d="M207.908 22.2299C207.963 19.7346 207.611 19.1549 206.028 18.8314C204.545 18.5271 203.027 18.3797 201.528 18.4374C199.724 18.5078 197.674 19.2093 196.288 19.8275C194.519 20.6187 194.266 20.7693 194.651 21.8871C195.737 25.0454 197.092 29.3312 202.582 29.1294C206.643 28.9757 207.825 26.0736 207.908 22.2299ZM174.775 22.2299C174.862 26.0736 176.041 28.9789 180.102 29.1262C185.596 29.3312 186.947 25.0422 188.033 21.8839C188.417 20.766 188.164 20.6155 186.396 19.8243C185.013 19.2061 182.963 18.5046 181.156 18.4342C179.657 18.3765 178.139 18.5239 176.656 18.8282C175.07 19.1549 174.718 19.7346 174.775 22.2299Z" fill="white"/>
<path fill-rule="evenodd" clip-rule="evenodd" d="M172.744 17.636C183.615 16.0345 185.553 18.0428 191.546 18.1645C197.539 18.0428 199.477 15.7141 210.348 17.636C211.028 17.7577 211.095 17.7866 211.21 18.4592C211.258 18.7571 211.29 20.0159 211.3 20.3138C211.322 20.8648 211.213 20.9384 210.666 21.2299C210.188 21.483 209.967 21.5566 209.967 22.5624C209.967 29.1929 206.956 31.2429 202.911 31.3998C198.635 31.5664 195.156 29.1352 193.708 25.4036C191.658 20.1313 191.338 20.128 189.288 25.4036C187.843 29.1352 184.454 31.5696 180.181 31.403C176.136 31.2429 173.125 28.9559 173.125 22.5656C173.125 21.5598 172.904 21.4862 172.427 21.2331C171.879 20.9384 171.767 20.8648 171.792 20.3138C171.805 20.0159 171.837 18.7571 171.882 18.4592C171.997 17.7866 172.065 18.0748 172.744 17.636ZM208.183 22.4375C208.238 19.9423 207.885 19.3625 206.303 19.039C204.82 18.7347 203.302 18.5873 201.803 18.645C199.999 18.7155 197.936 19.1063 196.553 19.7245C194.784 20.5156 194.589 21.1338 194.973 22.2485C196.059 25.4068 197.363 29.5388 202.856 29.3338C206.918 29.1833 208.1 26.2813 208.183 22.4375ZM174.909 22.4375C174.996 26.2813 176.174 29.1865 180.236 29.3338C185.729 29.5356 187.081 25.2498 188.167 22.0916C188.551 20.9737 188.298 20.8231 186.53 20.032C185.146 19.4138 183.096 18.7123 181.29 18.6418C179.791 18.5841 178.272 18.7315 176.789 19.0358C175.207 19.3625 174.855 19.9423 174.909 22.4375Z" fill="url(#paint3_linear_348_5)"/>
<path d="M188.344 25.2709C186.87 27.9423 183.135 30.3222 180.608 30.3222C178.081 30.3222 174.577 28.8071 175.4 24.7744C176.268 20.5142 178.081 18.4258 180.608 18.4258C183.135 18.4226 191.922 18.7749 188.344 25.2709ZM208.895 25.2709C207.703 28.08 203.69 30.3222 201.159 30.3222C198.629 30.3222 196.48 28.016 196.55 24.4573C196.63 20.511 199 18.381 201.528 18.4386C206.547 18.5507 211.704 18.6404 208.895 25.2709Z" fill="url(#paint4_linear_348_5)"/>
<defs>
<linearGradient id="paint0_linear_348_5" x1="0" y1="36.5" x2="214" y2="36.5" gradientUnits="userSpaceOnUse">
<stop stop-color="#F67C00"/>
<stop offset="1" stop-color="#FF501A"/>
</linearGradient>
<linearGradient id="paint1_linear_348_5" x1="171.789" y1="24.145" x2="211.302" y2="24.145" gradientUnits="userSpaceOnUse">
<stop stop-color="#F67C00"/>
<stop offset="1" stop-color="#FF501A"/>
</linearGradient>
<linearGradient id="paint2_linear_348_5" x1="171.789" y1="24.145" x2="211.302" y2="24.145" gradientUnits="userSpaceOnUse">
<stop stop-color="#F67C00"/>
<stop offset="1" stop-color="#FF501A"/>
</linearGradient>
<linearGradient id="paint3_linear_348_5" x1="171.789" y1="24.145" x2="211.302" y2="24.145" gradientUnits="userSpaceOnUse">
<stop stop-color="#F67C00"/>
<stop offset="1" stop-color="#FF501A"/>
</linearGradient>
<linearGradient id="paint4_linear_348_5" x1="175.277" y1="24.374" x2="209.69" y2="24.374" gradientUnits="userSpaceOnUse">
<stop stop-color="#F67C00"/>
<stop offset="1" stop-color="#FF501A"/>
</linearGradient>
</defs>
</svg>
