<svg width="97" height="85" viewBox="0 0 97 85" fill="none" xmlns="http://www.w3.org/2000/svg">
<path fill-rule="evenodd" clip-rule="evenodd" d="M4.09764 30.3457C29.641 27.0253 34.1943 31.189 48.2755 31.4414C62.3567 31.189 66.91 26.3613 92.4534 30.3457C94.0489 30.598 94.2069 30.6578 94.4779 32.0523C94.5908 32.6699 94.666 35.2796 94.6886 35.8972C94.7413 37.0394 94.4854 37.1921 93.1985 37.7964C92.0771 38.321 91.5578 38.4738 91.5578 40.5589C91.5578 54.305 84.4833 58.555 74.9779 58.8804C64.9306 59.2257 56.7574 54.1855 53.3556 46.4492C48.5389 35.5187 47.7863 35.5121 42.9696 46.4492C39.5754 54.1855 31.6128 59.2324 21.5731 58.8871C12.0677 58.555 4.99323 53.8136 4.99323 40.5656C4.99323 38.4804 4.47394 38.3277 3.35256 37.8031C2.0656 37.1921 1.80219 37.0394 1.8624 35.8972C1.89251 35.2796 1.96777 32.6699 2.07313 32.0523C2.34407 30.6578 2.50211 31.2554 4.09764 30.3457Z" fill="url(#paint0_linear_348_5161)" stroke="url(#paint1_linear_348_5161)" stroke-width="1.0625" stroke-miterlimit="10"/>
<path fill-rule="evenodd" clip-rule="evenodd" d="M86.7179 39.8692C86.8458 34.6962 86.018 33.4942 82.3001 32.8235C78.8156 32.1927 75.2482 31.8872 71.726 32.0067C67.4889 32.1528 62.6722 33.6071 59.4134 34.8888C55.2591 36.529 54.6645 36.8411 55.5676 39.1587C58.1189 45.7064 61.3025 54.5915 74.2021 54.1732C83.7451 53.8544 86.5222 47.838 86.7179 39.8692ZM8.86854 39.8692C9.07174 47.838 11.8413 53.861 21.3843 54.1665C34.2915 54.5915 37.4675 45.6997 40.0188 39.1521C40.9219 36.8345 40.3274 36.5224 36.173 34.8821C32.9218 33.6005 28.1051 32.1462 23.8604 32.0001C20.3382 31.8806 16.7709 32.186 13.2863 32.8169C9.56093 33.4942 8.73307 34.6962 8.86854 39.8692Z" fill="white"/>
<path fill-rule="evenodd" clip-rule="evenodd" d="M4.09764 30.3457C29.641 27.0253 34.1943 31.189 48.2755 31.4414C62.3567 31.189 66.91 26.3613 92.4534 30.3457C94.0489 30.598 94.2069 30.6578 94.4779 32.0523C94.5908 32.6699 94.666 35.2796 94.6886 35.8972C94.7413 37.0394 94.4854 37.1921 93.1985 37.7964C92.0771 38.321 91.5578 38.4738 91.5578 40.5589C91.5578 54.305 84.4833 58.555 74.9779 58.8804C64.9306 59.2257 56.7574 54.1855 53.3556 46.4492C48.5389 35.5187 47.7863 35.5121 42.9696 46.4492C39.5754 54.1855 31.6128 59.2324 21.5731 58.8871C12.0677 58.555 4.99323 53.8136 4.99323 40.5656C4.99323 38.4804 4.47394 38.3277 3.35256 37.8031C2.0656 37.1921 1.80219 37.0394 1.8624 35.8972C1.89251 35.2796 1.96777 32.6699 2.07313 32.0523C2.34407 30.6578 2.50211 31.2554 4.09764 30.3457ZM87.3658 40.3C87.4937 35.1269 86.6658 33.925 82.948 33.2543C79.4634 32.6234 75.8961 32.3179 72.3739 32.4375C68.1367 32.5835 63.29 33.3937 60.0387 34.6753C55.8843 36.3156 55.4252 37.5972 56.3284 39.9082C58.8797 46.4558 61.9428 55.0222 74.85 54.5972C84.393 54.2851 87.1701 48.2687 87.3658 40.3ZM9.18524 40.3C9.38844 48.2687 12.158 54.2918 21.701 54.5972C34.6082 55.0156 37.7842 46.1304 40.3355 39.5828C41.2387 37.2652 40.6441 36.9531 36.4897 35.3128C33.2385 34.0312 28.4218 32.5769 24.1771 32.4308C20.6549 32.3113 17.0876 32.6168 13.603 33.2476C9.88516 33.925 9.0573 35.1269 9.18524 40.3Z" fill="url(#paint2_linear_348_5161)"/>
<path d="M40.7506 46.1712C37.2887 51.7095 28.5133 56.6435 22.5753 56.6435C16.6372 56.6435 8.40372 53.5025 10.3379 45.1419C12.3775 36.3099 16.6372 31.9802 22.5753 31.9802C28.5133 31.9735 49.1572 32.704 40.7506 46.1712ZM89.0377 46.1712C86.238 51.995 76.8079 56.6435 70.8623 56.6435C64.9168 56.6435 59.8668 51.8622 60.0324 44.4845C60.2205 36.3032 65.7898 31.8872 71.7278 32.0067C83.5211 32.2392 95.6381 32.4251 89.0377 46.1712Z" fill="url(#paint3_linear_348_5161)"/>
<defs>
<linearGradient id="paint0_linear_348_5161" x1="1.85449" y1="43.8399" x2="94.695" y2="43.8399" gradientUnits="userSpaceOnUse">
<stop stop-color="#F67C00"/>
<stop offset="1" stop-color="#FF501A"/>
</linearGradient>
<linearGradient id="paint1_linear_348_5161" x1="1.85449" y1="43.8399" x2="94.695" y2="43.8399" gradientUnits="userSpaceOnUse">
<stop stop-color="#F67C00"/>
<stop offset="1" stop-color="#FF501A"/>
</linearGradient>
<linearGradient id="paint2_linear_348_5161" x1="1.85449" y1="43.8399" x2="94.695" y2="43.8399" gradientUnits="userSpaceOnUse">
<stop stop-color="#F67C00"/>
<stop offset="1" stop-color="#FF501A"/>
</linearGradient>
<linearGradient id="paint3_linear_348_5161" x1="10.0502" y1="44.3118" x2="90.905" y2="44.3118" gradientUnits="userSpaceOnUse">
<stop stop-color="#F67C00"/>
<stop offset="1" stop-color="#FF501A"/>
</linearGradient>
</defs>
</svg>
