<svg width="1024" height="1024" viewBox="0 0 1024 1024" fill="none" xmlns="http://www.w3.org/2000/svg">
<path d="M104.275 468.093C108.672 460.448 114.886 454.523 122.917 450.318C130.947 445.923 140.412 443.725 151.31 443.725C164.121 443.725 175.689 447.069 186.014 453.758C196.53 460.448 204.751 470.004 210.679 482.427C216.797 494.85 219.856 509.375 219.856 526.003C219.856 542.631 216.797 557.252 210.679 569.866C204.751 582.289 196.53 591.845 186.014 598.534C175.689 605.224 164.121 608.568 151.31 608.568C140.412 608.568 130.947 606.466 122.917 602.261C114.886 597.866 108.672 591.845 104.275 584.2V606.562H48.061V394.415H104.275V468.093ZM162.783 526.003C162.783 515.491 159.914 507.369 154.178 501.635C148.634 495.71 141.75 492.748 133.529 492.748C125.307 492.748 118.328 495.71 112.592 501.635C107.047 507.56 104.275 515.682 104.275 526.003C104.275 536.515 107.047 544.733 112.592 550.658C118.328 556.583 125.307 559.545 133.529 559.545C141.75 559.545 148.634 556.583 154.178 550.658C159.914 544.542 162.783 536.324 162.783 526.003ZM317.854 608.568C301.793 608.568 287.357 605.224 274.546 598.534C261.927 591.845 251.984 582.289 244.719 569.866C237.453 557.443 233.82 542.822 233.82 526.003C233.82 509.375 237.453 494.85 244.719 482.427C252.176 470.004 262.214 460.448 274.833 453.758C287.644 447.069 302.08 443.725 318.141 443.725C334.202 443.725 348.542 447.069 361.161 453.758C373.972 460.448 384.01 470.004 391.275 482.427C398.732 494.85 402.461 509.375 402.461 526.003C402.461 542.631 398.732 557.252 391.275 569.866C384.01 582.289 373.972 591.845 361.161 598.534C348.35 605.224 333.915 608.568 317.854 608.568ZM317.854 559.832C325.693 559.832 332.194 556.965 337.356 551.231C342.71 545.306 345.387 536.897 345.387 526.003C345.387 515.109 342.71 506.795 337.356 501.062C332.194 495.328 325.789 492.461 318.141 492.461C310.492 492.461 304.087 495.328 298.925 501.062C293.762 506.795 291.181 515.109 291.181 526.003C291.181 537.088 293.667 545.498 298.638 551.231C303.609 556.965 310.015 559.832 317.854 559.832ZM530.59 444.298C549.134 444.298 563.86 450.51 574.758 462.932C585.657 475.164 591.106 491.792 591.106 512.816V606.562H534.892V520.269C534.892 511.095 532.499 503.928 527.722 498.768C522.941 493.416 516.537 490.741 508.507 490.741C500.091 490.741 493.494 493.416 488.717 498.768C483.936 503.928 481.547 511.095 481.547 520.269V606.562H425.331V445.731H481.547V468.666C486.517 461.404 493.207 455.574 501.623 451.178C510.035 446.591 519.692 444.298 530.59 444.298ZM612.773 526.003C612.773 509.375 615.735 494.85 621.664 482.427C627.781 470.004 636.098 460.448 646.616 453.758C657.129 447.069 668.794 443.725 681.602 443.725C691.931 443.725 701.109 445.923 709.139 450.318C717.358 454.523 723.766 460.352 728.355 467.806V394.415H784.855V606.562H728.355V584.2C723.954 591.654 717.743 597.579 709.713 601.975C701.682 606.37 692.218 608.568 681.319 608.568C668.507 608.568 656.842 605.224 646.329 598.534C636.004 591.845 627.781 582.289 621.664 569.866C615.735 557.252 612.773 542.631 612.773 526.003ZM728.642 526.003C728.642 515.682 725.774 507.56 720.038 501.635C714.49 495.71 707.607 492.748 699.388 492.748C690.972 492.748 683.995 495.71 678.451 501.635C672.903 507.369 670.134 515.491 670.134 526.003C670.134 536.324 672.903 544.542 678.451 550.658C683.995 556.583 690.972 559.545 699.388 559.545C707.607 559.545 714.49 556.583 720.038 550.658C725.774 544.733 728.642 536.515 728.642 526.003ZM845.281 430.824C835.337 430.824 827.307 428.148 821.19 422.797C815.261 417.254 812.299 410.374 812.299 402.155C812.299 393.746 815.261 386.77 821.19 381.227C827.307 375.685 835.337 372.913 845.281 372.913C855.033 372.913 862.87 375.685 868.799 381.227C874.916 386.77 877.977 393.746 877.977 402.155C877.977 410.374 874.916 417.254 868.799 422.797C862.87 428.148 855.033 430.824 845.281 430.824ZM873.101 445.731V606.562H816.888V445.731H873.101ZM933.505 430.824C923.561 430.824 915.53 428.148 909.413 422.797C903.485 417.254 900.522 410.374 900.522 402.155C900.522 393.746 903.485 386.77 909.413 381.227C915.53 375.685 923.561 372.913 933.505 372.913C943.256 372.913 951.094 375.685 957.023 381.227C963.14 386.77 966.2 393.746 966.2 402.155C966.2 410.374 963.14 417.254 957.023 422.797C951.094 428.148 943.256 430.824 933.505 430.824ZM961.325 445.731V606.562H905.111V445.731H961.325Z" fill="url(#paint0_linear_1_228)"/>
<path fill-rule="evenodd" clip-rule="evenodd" d="M806.119 372C854.835 364.826 863.52 373.822 890.377 374.367C917.233 373.822 925.918 363.391 974.634 372C977.682 372.545 977.982 372.674 978.497 375.687C978.712 377.022 978.856 382.66 978.901 383.995C978.999 386.463 978.511 386.793 976.059 388.098C973.917 389.232 972.927 389.562 972.927 394.067C972.927 423.768 959.434 432.951 941.307 433.654C922.145 434.4 906.554 423.51 900.065 406.794C890.879 383.177 889.445 383.162 880.258 406.794C873.782 423.51 858.595 434.415 839.447 433.668C821.32 432.951 807.827 422.707 807.827 394.082C807.827 389.576 806.836 389.246 804.699 388.113C802.243 386.793 801.741 386.463 801.853 383.995C801.911 382.66 802.055 377.022 802.256 375.687C802.772 372.674 803.076 373.965 806.119 372Z" fill="url(#paint1_linear_1_228)" stroke="url(#paint2_linear_1_228)" stroke-width="0.375" stroke-miterlimit="10"/>
<path fill-rule="evenodd" clip-rule="evenodd" d="M963.7 392.578C963.946 381.4 962.369 378.804 955.275 377.354C948.629 375.991 941.827 375.331 935.109 375.59C927.025 375.905 917.838 379.047 911.627 381.816C903.7 385.361 902.566 386.035 904.291 391.042C909.158 405.19 915.23 424.388 939.832 423.484C958.031 422.795 963.328 409.795 963.7 392.578ZM815.221 392.578C815.611 409.795 820.894 422.81 839.093 423.469C863.713 424.388 869.767 405.175 874.634 391.028C876.355 386.02 875.221 385.346 867.298 381.802C861.1 379.033 851.914 375.891 843.816 375.575C837.098 375.317 830.296 375.977 823.65 377.34C816.543 378.804 814.965 381.4 815.221 392.578Z" fill="white"/>
<path fill-rule="evenodd" clip-rule="evenodd" d="M806.119 372C854.835 364.826 863.52 373.822 890.377 374.367C917.233 373.822 925.918 363.391 974.634 372C977.682 372.545 977.982 372.674 978.497 375.687C978.712 377.022 978.856 382.66 978.901 383.995C978.999 386.463 978.511 386.793 976.059 388.098C973.917 389.232 972.927 389.562 972.927 394.067C972.927 423.768 959.434 432.951 941.307 433.654C922.145 434.4 906.554 423.51 900.065 406.794C890.879 383.177 889.445 383.162 880.258 406.794C873.782 423.51 858.595 434.415 839.447 433.668C821.32 432.951 807.827 422.707 807.827 394.082C807.827 389.576 806.836 389.246 804.699 388.113C802.243 386.793 801.741 386.463 801.853 383.995C801.911 382.66 802.055 377.022 802.256 375.687C802.772 372.674 803.076 373.965 806.119 372ZM964.932 393.508C965.179 382.331 963.597 379.733 956.507 378.284C949.862 376.921 943.059 376.261 936.341 376.519C928.257 376.835 919.012 378.586 912.815 381.355C904.887 384.899 904.013 387.668 905.734 392.661C910.601 406.809 916.445 425.318 941.06 424.399C959.263 423.725 964.56 410.726 964.932 393.508ZM815.821 393.508C816.211 410.726 821.49 423.74 839.693 424.399C864.309 425.303 870.368 406.105 875.234 391.958C876.955 386.951 875.821 386.276 867.898 382.732C861.696 379.963 852.51 376.821 844.416 376.505C837.699 376.247 830.892 376.907 824.246 378.27C817.157 379.733 815.579 382.331 815.821 393.508Z" fill="url(#paint3_linear_1_228)"/>
<path d="M876.027 406.2C869.422 418.166 852.684 428.827 841.36 428.827C830.036 428.827 814.333 422.04 818.021 403.976C821.911 384.892 830.036 375.537 841.36 375.537C852.684 375.523 892.062 377.101 876.027 406.2ZM968.123 406.2C962.781 418.783 944.798 428.827 933.455 428.827C922.118 428.827 912.487 418.496 912.801 402.555C913.16 384.878 923.78 375.337 935.109 375.595C957.601 376.097 980.711 376.499 968.123 406.2Z" fill="url(#paint4_linear_1_228)"/>
<defs>
<linearGradient id="paint0_linear_1_228" x1="32" y1="456.5" x2="991" y2="456.5" gradientUnits="userSpaceOnUse">
<stop stop-color="#F67C00"/>
<stop offset="1" stop-color="#FF501A"/>
</linearGradient>
<linearGradient id="paint1_linear_1_228" x1="801.84" y1="401.156" x2="978.909" y2="401.156" gradientUnits="userSpaceOnUse">
<stop stop-color="#F67C00"/>
<stop offset="1" stop-color="#FF501A"/>
</linearGradient>
<linearGradient id="paint2_linear_1_228" x1="801.84" y1="401.156" x2="978.909" y2="401.156" gradientUnits="userSpaceOnUse">
<stop stop-color="#F67C00"/>
<stop offset="1" stop-color="#FF501A"/>
</linearGradient>
<linearGradient id="paint3_linear_1_228" x1="801.84" y1="401.156" x2="978.909" y2="401.156" gradientUnits="userSpaceOnUse">
<stop stop-color="#F67C00"/>
<stop offset="1" stop-color="#FF501A"/>
</linearGradient>
<linearGradient id="paint4_linear_1_228" x1="817.47" y1="402.182" x2="971.686" y2="402.182" gradientUnits="userSpaceOnUse">
<stop stop-color="#F67C00"/>
<stop offset="1" stop-color="#FF501A"/>
</linearGradient>
</defs>
</svg>
