<svg width="1024" height="1024" viewBox="0 0 1024 1024" fill="none" xmlns="http://www.w3.org/2000/svg">
<rect width="1024" height="1024" fill="#F8F9FA"/>
<path d="M79.0226 476.873C83.709 468.713 90.3315 462.39 98.8895 457.902C107.448 453.211 117.534 450.865 129.148 450.865C142.801 450.865 155.128 454.435 166.131 461.574C177.339 468.713 186.1 478.913 192.417 492.171C198.937 505.43 202.197 520.933 202.197 538.679C202.197 556.426 198.937 572.03 192.417 585.493C186.1 598.752 177.339 608.951 166.131 616.09C155.128 623.229 142.801 626.799 129.148 626.799C117.534 626.799 107.448 624.556 98.8895 620.068C90.3315 615.376 83.709 608.951 79.0226 600.792V624.657H19.1162V398.238H79.0226V476.873ZM141.374 538.679C141.374 527.46 138.318 518.791 132.205 512.671C126.296 506.348 118.96 503.186 110.198 503.186C101.436 503.186 93.9992 506.348 87.8863 512.671C81.9773 518.995 79.0226 527.664 79.0226 538.679C79.0226 549.898 81.9773 558.669 87.8863 564.993C93.9992 571.316 101.436 574.478 110.198 574.478C118.96 574.478 126.296 571.316 132.205 564.993C138.318 558.466 141.374 549.694 141.374 538.679ZM306.632 626.799C289.516 626.799 274.132 623.229 260.48 616.09C247.032 608.951 236.436 598.752 228.693 585.493C220.95 572.234 217.079 556.63 217.079 538.679C217.079 520.933 220.95 505.43 228.693 492.171C236.64 478.913 247.337 468.713 260.786 461.574C274.438 454.435 289.822 450.865 306.938 450.865C324.054 450.865 339.337 454.435 352.785 461.574C366.437 468.713 377.135 478.913 384.878 492.171C392.824 505.43 396.798 520.933 396.798 538.679C396.798 556.426 392.824 572.03 384.878 585.493C377.135 598.752 366.437 608.951 352.785 616.09C339.133 623.229 323.749 626.799 306.632 626.799ZM306.632 574.784C314.987 574.784 321.915 571.724 327.416 565.605C333.122 559.281 335.974 550.306 335.974 538.679C335.974 527.052 333.122 518.179 327.416 512.06C321.915 505.94 315.089 502.88 306.938 502.88C298.787 502.88 291.962 505.94 286.46 512.06C280.958 518.179 278.208 527.052 278.208 538.679C278.208 550.51 280.857 559.485 286.154 565.605C291.452 571.724 298.278 574.784 306.632 574.784ZM533.345 451.477C553.106 451.477 568.799 458.107 580.414 471.365C592.028 484.42 597.836 502.167 597.836 524.604V624.657H537.929V532.56C537.929 522.769 535.379 515.119 530.288 509.612C525.192 503.9 518.368 501.045 509.81 501.045C500.841 501.045 493.811 503.9 488.72 509.612C483.625 515.119 481.079 522.769 481.079 532.56V624.657H421.171V453.007H481.079V477.485C486.376 469.733 493.506 463.512 502.474 458.82C511.438 453.925 521.73 451.477 533.345 451.477ZM620.926 538.679C620.926 520.933 624.083 505.43 630.401 492.171C636.92 478.913 645.784 468.713 656.992 461.574C668.196 454.435 680.627 450.865 694.276 450.865C705.284 450.865 715.065 453.211 723.623 457.902C732.381 462.39 739.211 468.611 744.101 476.567V398.238H804.313V624.657H744.101V600.792C739.411 608.747 732.792 615.07 724.234 619.762C715.676 624.453 705.59 626.799 693.975 626.799C680.322 626.799 667.89 623.229 656.687 616.09C645.683 608.951 636.92 598.752 630.401 585.493C624.083 572.03 620.926 556.426 620.926 538.679ZM744.407 538.679C744.407 527.664 741.35 518.995 735.237 512.671C729.325 506.348 721.99 503.186 713.231 503.186C704.262 503.186 696.826 506.348 690.919 512.671C685.006 518.791 682.055 527.46 682.055 538.679C682.055 549.694 685.006 558.466 690.919 564.993C696.826 571.316 704.262 574.478 713.231 574.478C721.99 574.478 729.325 571.316 735.237 564.993C741.35 558.669 744.407 549.898 744.407 538.679ZM868.709 437.096C858.111 437.096 849.553 434.241 843.034 428.529C836.716 422.614 833.559 415.27 833.559 406.499C833.559 397.524 836.716 390.078 843.034 384.163C849.553 378.248 858.111 375.29 868.709 375.29C879.101 375.29 887.453 378.248 893.771 384.163C900.29 390.078 903.552 397.524 903.552 406.499C903.552 415.27 900.29 422.614 893.771 428.529C887.453 434.241 879.101 437.096 868.709 437.096ZM898.356 453.007V624.657H838.45V453.007H898.356ZM962.728 437.096C952.13 437.096 943.572 434.241 937.054 428.529C930.735 422.614 927.579 415.27 927.579 406.499C927.579 397.524 930.735 390.078 937.054 384.163C943.572 378.248 952.13 375.29 962.728 375.29C973.12 375.29 981.472 378.248 987.791 384.163C994.309 390.078 997.571 397.524 997.571 406.499C997.571 415.27 994.309 422.614 987.791 428.529C981.472 434.241 973.12 437.096 962.728 437.096ZM992.375 453.007V624.657H932.469V453.007H992.375Z" fill="url(#paint0_linear_1_196)"/>
<path fill-rule="evenodd" clip-rule="evenodd" d="M826.974 374.314C878.89 366.658 888.146 376.259 916.766 376.841C945.387 376.259 954.643 365.126 1006.56 374.314C1009.81 374.896 1010.13 375.034 1010.68 378.25C1010.91 379.674 1011.06 385.692 1011.11 387.117C1011.21 389.751 1010.69 390.103 1008.08 391.496C1005.8 392.706 1004.74 393.058 1004.74 397.867C1004.74 429.566 990.36 439.367 971.042 440.117C950.621 440.913 934.007 429.29 927.091 411.45C917.301 386.244 915.773 386.228 905.983 411.45C899.082 429.29 882.897 440.929 862.491 440.132C843.173 439.367 828.793 428.433 828.793 397.882C828.793 393.073 827.738 392.722 825.46 391.512C822.843 390.103 822.308 389.751 822.427 387.117C822.489 385.692 822.642 379.674 822.857 378.25C823.406 375.034 823.731 376.412 826.974 374.314Z" fill="url(#paint1_linear_1_196)" stroke="url(#paint2_linear_1_196)" stroke-width="0.375" stroke-miterlimit="10"/>
<path fill-rule="evenodd" clip-rule="evenodd" d="M994.906 396.277C995.169 384.348 993.488 381.576 985.928 380.03C978.846 378.575 971.596 377.87 964.437 378.146C955.822 378.483 946.032 381.836 939.413 384.792C930.965 388.574 929.756 389.294 931.595 394.638C936.781 409.738 943.252 430.227 969.471 429.262C988.865 428.528 994.51 414.653 994.906 396.277ZM836.673 396.277C837.089 414.653 842.719 428.543 862.113 429.247C888.351 430.227 894.803 409.722 899.989 394.623C901.823 389.279 900.615 388.559 892.172 384.776C885.567 381.821 875.777 378.467 867.147 378.131C859.988 377.855 852.739 378.559 845.656 380.014C838.082 381.576 836.401 384.348 836.673 396.277Z" fill="white"/>
<path fill-rule="evenodd" clip-rule="evenodd" d="M826.974 374.314C878.89 366.658 888.146 376.259 916.766 376.841C945.387 376.259 954.643 365.126 1006.56 374.314C1009.81 374.896 1010.13 375.034 1010.68 378.25C1010.91 379.674 1011.06 385.692 1011.11 387.117C1011.21 389.751 1010.69 390.103 1008.08 391.496C1005.8 392.706 1004.74 393.058 1004.74 397.867C1004.74 429.566 990.36 439.367 971.042 440.117C950.621 440.913 934.007 429.29 927.091 411.45C917.301 386.244 915.773 386.228 905.983 411.45C899.082 429.29 882.897 440.929 862.491 440.132C843.173 439.367 828.793 428.433 828.793 397.882C828.793 393.073 827.738 392.722 825.46 391.512C822.843 390.103 822.308 389.751 822.427 387.117C822.489 385.692 822.642 379.674 822.857 378.25C823.406 375.034 823.731 376.412 826.974 374.314ZM996.22 397.27C996.482 385.34 994.797 382.569 987.241 381.022C980.159 379.567 972.91 378.862 965.751 379.138C957.135 379.475 947.283 381.344 940.678 384.299C932.23 388.081 931.299 391.037 933.133 396.366C938.319 411.465 944.547 431.22 970.78 430.24C990.178 429.52 995.823 415.646 996.22 397.27ZM837.313 397.27C837.729 415.646 843.354 429.535 862.753 430.24C888.986 431.204 895.443 410.715 900.629 395.616C902.463 390.271 901.255 389.551 892.811 385.769C886.202 382.814 876.412 379.46 867.787 379.123C860.628 378.847 853.374 379.552 846.291 381.007C838.736 382.569 837.055 385.34 837.313 397.27Z" fill="url(#paint3_linear_1_196)"/>
<path d="M901.475 410.816C894.435 423.587 876.598 434.965 864.53 434.965C852.462 434.965 835.727 427.722 839.658 408.442C843.803 388.075 852.462 378.09 864.53 378.09C876.598 378.075 918.562 379.759 901.475 410.816ZM999.62 410.816C993.927 424.245 974.762 434.965 962.675 434.965C950.593 434.965 940.33 423.939 940.664 406.926C941.046 388.059 952.364 377.876 964.437 378.152C988.407 378.688 1013.03 379.116 999.62 410.816Z" fill="url(#paint4_linear_1_196)"/>
<defs>
<linearGradient id="paint0_linear_1_196" x1="2.0001" y1="464.5" x2="1024" y2="464.5" gradientUnits="userSpaceOnUse">
<stop stop-color="#F67C00"/>
<stop offset="1" stop-color="#FF501A"/>
</linearGradient>
<linearGradient id="paint1_linear_1_196" x1="822.413" y1="405.433" x2="1011.12" y2="405.433" gradientUnits="userSpaceOnUse">
<stop stop-color="#F67C00"/>
<stop offset="1" stop-color="#FF501A"/>
</linearGradient>
<linearGradient id="paint2_linear_1_196" x1="822.413" y1="405.433" x2="1011.12" y2="405.433" gradientUnits="userSpaceOnUse">
<stop stop-color="#F67C00"/>
<stop offset="1" stop-color="#FF501A"/>
</linearGradient>
<linearGradient id="paint3_linear_1_196" x1="822.413" y1="405.433" x2="1011.12" y2="405.433" gradientUnits="userSpaceOnUse">
<stop stop-color="#F67C00"/>
<stop offset="1" stop-color="#FF501A"/>
</linearGradient>
<linearGradient id="paint4_linear_1_196" x1="839.07" y1="406.528" x2="1003.42" y2="406.528" gradientUnits="userSpaceOnUse">
<stop stop-color="#F67C00"/>
<stop offset="1" stop-color="#FF501A"/>
</linearGradient>
</defs>
</svg>
